<svg height='100px' width='100px'  fill="#3BB300" xmlns="http://www.w3.org/2000/svg" xmlns:xlink="http://www.w3.org/1999/xlink" version="1.1" x="0px" y="0px" viewBox="0 0 512 512" style="enable-background:new 0 0 512 512;" xml:space="preserve"><g><path d="M276.648,66.223c0-13.111-10.654-23.723-23.721-23.723c-13.088,0-23.723,10.611-23.723,23.723v23.722h47.443V66.223z    M210.604,89.944H163.16c0-13.111,10.633-23.786,23.721-23.786C199.947,66.158,210.604,76.833,210.604,89.944z M158.828,422.056   h189.361V469.5H158.828V422.056z M206.065,327.166H348.39l-0.037,23.584c-0.071,12.741-7.485,32.572-14.526,47.583H174.164   c-6.299-15.893-15.545-43.923-15.545-71.167v-94.888c0-13.112,10.635-23.723,23.723-23.723c13.066,0,23.724,10.61,23.724,23.723   V327.166z M97.667,113.184v189.997h38.73v-70.902c0-2.6,0.229-5.147,0.646-7.632c-2.511-0.408-5.083-0.631-7.71-0.631V192.35   c26.239,0,47.499-21.26,47.499-47.502h158.335c0,26.242,21.261,47.502,47.5,47.502v31.666c-26.239,0-47.5,21.259-47.5,47.501   h-106.88v31.664h186.046V113.184H97.667z M137.251,160.685c-4.378,0-7.918-3.544-7.918-7.919c0-4.374,3.54-7.918,7.918-7.918   c4.376,0,7.916,3.544,7.916,7.918C145.167,157.141,141.627,160.685,137.251,160.685z M374.749,271.517   c-4.376,0-7.916-3.543-7.916-7.918s3.54-7.915,7.916-7.915c4.377,0,7.918,3.54,7.918,7.915S379.126,271.517,374.749,271.517z    M374.749,160.685c-4.376,0-7.916-3.544-7.916-7.919c0-4.374,3.54-7.918,7.916-7.918c4.377,0,7.918,3.544,7.918,7.918   C382.667,157.141,379.126,160.685,374.749,160.685z M303.994,208.183c0-24.187-17.883-44.176-41.146-47.498h58.496   c5.734,22.232,23.271,39.768,45.489,45.487v4.021c-22.219,5.721-39.755,23.256-45.489,45.491h-58.496   C286.111,252.359,303.994,232.369,303.994,208.183z M249.152,160.685c-19.012,2.715-34.422,16.56-39.424,34.728   c-7.654-5.7-17.133-9.079-27.387-9.079c-1.857,0-3.686,0.124-5.484,0.339c6.478-7.353,11.277-16.215,13.799-25.987H249.152z    M228.287,255.684v-8.329c6.066,4.297,13.168,7.229,20.865,8.329H228.287z M333.594,89.944h-38.342   c4.314-5.947,11.29-9.837,19.174-9.837C322.297,80.107,329.273,83.997,333.594,89.944z"></path></g></svg>