<?xml version="1.0" encoding="UTF-8"?>
<svg width="256px" height="256px" viewBox="0 0 256 256" version="1.1" xmlns="http://www.w3.org/2000/svg" xmlns:xlink="http://www.w3.org/1999/xlink">
    <!-- Generator: Sketch 56.3 (81716) - https://sketch.com -->
    <title>Icons/Illustrative/currency/payment-256x256</title>
    <desc>Created with Sketch.</desc>
    <g id="Icons/Illustrative/currency/payment-256x256" stroke="none" stroke-width="1" fill="none" fill-rule="evenodd">
        <g id="Icons/Illustrative/Oval" fill="#F2F3F2">
            <circle id="Oval" cx="128" cy="128" r="128"></circle>
        </g>
        <g id="Group" transform="translate(45.000000, 78.000000)" fill-rule="nonzero">
            <g id="Layer_1">
                <path d="M38.425,-14.705 L94.045,-14.705 C96.8064237,-14.705 99.045,-12.4664237 99.045,-9.705 L99.045,111.765 C99.045,114.526424 96.8064237,116.765 94.045,116.765 L38.425,116.765 C35.6635763,116.765 33.425,114.526424 33.425,111.765 L33.425,-9.705 C33.425,-12.4664237 35.6635763,-14.705 38.425,-14.705 Z" id="Rectangle" fill="#C4203F" transform="translate(66.235000, 51.030000) rotate(90.000000) translate(-66.235000, -51.030000) "></path>
                <path d="M144.5,0.169909903 L23,0.169909903 C20.2385763,0.169909903 18,2.40857628 18,5.17000003 L18,15.17 L127,15.17 C131.418278,15.17 135,18.751722 135,23.17 L135,65.7400001 L144.53,65.7400001 C145.856083,65.7400001 147.127852,65.2132159 148.065534,64.275534 C149.003216,63.3378521 149.53,62.0660825 149.53,60.7400001 L149.53,5.17000003 C149.53,3.83870335 148.999124,2.56236617 148.054943,1.62381711 C147.110763,0.685268053 145.831273,0.16201225 144.5,0.169909903 Z" id="Path" fill="#C4203F"></path>
                <ellipse id="Oval" fill="#FFFFFF" cx="66.24" cy="51.0300001" rx="32.47" ry="24.63"></ellipse>
                <path d="M74.86,37.56 L74.14,41.9 C72.6696769,41.0070825 71.0610528,40.3649846 69.38,40 L68.2,47.68 C73.47,49.45 75.95,51.6000001 75.95,56.1900001 C75.95,61.6300001 72.08,64.5400001 65.95,64.5400001 L65.74,64.5400001 L64.98,69.5400001 L62.07,68.9100001 C62.07,68.9100001 62.79,64.3200001 62.75,64.3200001 C60.578339,64.0169828 58.4706573,63.36171 56.51,62.3800001 L57.18,58.0300001 C59.1534101,59.196053 61.3274205,59.9829023 63.59,60.3500001 L64.9,51.6300001 C59.8,49.9 57.22,48.09 57.22,43.57 C57.22,38.51 60.89,35.73 66.71,35.73 L67.13,35.73 L67.64,32.57 L70.59,33.24 L70.17,36.03 C71.7994099,36.3092476 73.379375,36.8246733 74.86,37.56 Z M66.17,39.66 C63.17,39.66 61.79,40.93 61.79,43 C61.79,44.81 62.67,45.78 65.62,46.83 L66.72,39.66 L66.17,39.66 Z M66.3,60.5300001 C69.67,60.5300001 71.36,59.1400001 71.36,56.6600001 C71.36,54.8000001 70.6,53.5800001 67.44,52.4400001 L66.21,60.5300001 L66.3,60.5300001 Z" id="Shape" fill="#8B1D41"></path>
                <path d="M156.06,101.26 L155.8,91.0000001 L145.5,91.2600001 L148.56,94.1700001 C144.111941,97.4119728 138.543918,98.7220011 133.116968,97.8033917 C127.690019,96.8847822 122.863315,93.8152578 119.73,89.2900001 L114.8,92.7200001 C118.969048,98.7344355 125.446771,102.74938 132.688011,103.807131 C139.929251,104.864883 147.28476,102.870605 153,98.3000001 L156.06,101.26 Z" id="Path" fill="#7B143C"></path>
            </g>
        </g>
    </g>
</svg>